<svg width="32" height="35" viewBox="0 0 32 35" fill="none" xmlns="http://www.w3.org/2000/svg">
<path d="M28 6.37604H22.6875V4.74496C22.6875 3.41044 22.3021 2.28598 21.5312 1.37159C20.7604 0.457197 19.8125 0 18.6875 0H13.3125C12.1875 0 11.2396 0.457197 10.4688 1.37159C9.69792 2.28598 9.3125 3.41044 9.3125 4.74496V6.37604H4C2.875 6.37604 1.92708 6.82088 1.15625 7.71056C0.385417 8.60024 0 9.73705 0 11.121V17.4229C0 18.4609 0.4375 18.9798 1.3125 18.9798V31.6578C1.3125 32.498 1.58333 33.2394 2.125 33.882C2.66667 34.5245 3.29167 34.8458 4 34.8458H28C28.7083 34.8458 29.3333 34.5245 29.875 33.882C30.4167 33.2394 30.6875 32.498 30.6875 31.6578V18.9798C31.5625 18.9798 32 18.4609 32 17.4229V11.121C32 9.73705 31.6146 8.60024 30.8438 7.71056C30.0729 6.82088 29.125 6.37604 28 6.37604ZM12 4.74496C12 4.30012 12.125 3.92942 12.375 3.63286C12.625 3.3363 12.9375 3.18802 13.3125 3.18802H18.6875C19.0625 3.18802 19.375 3.3363 19.625 3.63286C19.875 3.92942 20 4.30012 20 4.74496V6.37604H12V4.74496ZM4 31.6578V18.9798H12V23.7248C12 24.6145 12.2604 25.3682 12.7812 25.9861C13.3021 26.6039 13.9375 26.9128 14.6875 26.9128H17.3125C18.0625 26.9128 18.6979 26.6039 19.2188 25.9861C19.7396 25.3682 20 24.6145 20 23.7248V18.9798H28V31.6578H4ZM14.6875 23.7248V18.9798H17.3125V23.7248H14.6875ZM29.3125 15.866H2.6875V11.121C2.6875 10.0336 3.125 9.48992 4 9.48992H28C28.875 9.48992 29.3125 10.0336 29.3125 11.121V15.866Z" fill="white"/>
</svg>
