<svg width="26" height="26" viewBox="0 0 26 26" fill="none" xmlns="http://www.w3.org/2000/svg">
<path d="M18.8252 0.500122C23.0752 0.500122 25.5002 2.90012 25.5002 7.16262V18.8376C25.5002 23.0751 23.0877 25.5001 18.8377 25.5001H7.16268C2.90018 25.5001 0.500183 23.0751 0.500183 18.8376V7.16262C0.500183 2.90012 2.90018 0.500122 7.16268 0.500122H18.8252ZM12.9877 7.38762C12.4127 7.38762 11.9502 7.85012 11.9502 8.42512V11.9501H8.41268C8.13768 11.9501 7.87518 12.0626 7.67518 12.2501C7.48768 12.4501 7.37518 12.7114 7.37518 12.9876C7.37518 13.5626 7.83768 14.0251 8.41268 14.0376H11.9502V17.5751C11.9502 18.1501 12.4127 18.6126 12.9877 18.6126C13.5627 18.6126 14.0252 18.1501 14.0252 17.5751V14.0376H17.5752C18.1502 14.0251 18.6127 13.5626 18.6127 12.9876C18.6127 12.4126 18.1502 11.9501 17.5752 11.9501H14.0252V8.42512C14.0252 7.85012 13.5627 7.38762 12.9877 7.38762Z" fill="#1E1E1E"/>
</svg>
