<svg width="18" height="18" viewBox="0 0 18 18" fill="none" xmlns="http://www.w3.org/2000/svg">
<path d="M17.0111 11.3846C16.4868 13.0962 15.436 14.5988 14.0083 15.6786C12.7548 16.622 11.2632 17.1974 9.70086 17.3402C8.13853 17.4829 6.56732 17.1875 5.1636 16.4869C3.75987 15.7863 2.57919 14.7083 1.75408 13.3739C0.928975 12.0396 0.492091 10.5017 0.492471 8.93286C0.486831 7.10168 1.08212 5.31923 2.18702 3.85894C3.26684 2.43123 4.76945 1.38045 6.48103 0.856142C6.59383 0.821407 6.71397 0.818081 6.82853 0.846522C6.94308 0.874962 7.04772 0.934093 7.13118 1.01755C7.21464 1.10102 7.27377 1.20565 7.30221 1.32021C7.33065 1.43476 7.32733 1.5549 7.29259 1.66771C6.91833 2.9057 6.88695 4.22203 7.2018 5.47645C7.51664 6.73086 8.16592 7.87636 9.08043 8.79088C9.99495 9.70539 11.1404 10.3547 12.3949 10.6695C13.6493 10.9844 14.9656 10.953 16.2036 10.5787C16.3164 10.544 16.4365 10.5407 16.5511 10.5691C16.6657 10.5975 16.7703 10.6567 16.8538 10.7401C16.9372 10.8236 16.9963 10.9282 17.0248 11.0428C17.0532 11.1573 17.0499 11.2775 17.0152 11.3903L17.0111 11.3846Z" fill="#323232"/>
</svg>
