<svg width="238" height="305" viewBox="0 0 238 305" fill="none" xmlns="http://www.w3.org/2000/svg">
<path d="M-58.1154 154.3C-53.8483 148.015 -48.6228 141.407 -42.0036 133.809C-42.0036 133.809 -50.1553 115.256 -51.1392 97.2567C-52.123 79.2577 -51.1392 60.7048 -51.1392 60.7048C-21.1375 48.3 -4.79675 45.5403 23.3511 49.2131C39.6059 25.798 50.191 14.281 76.6188 2C101.266 12.4032 113.535 21.9223 131.995 46.9977C164.396 43.6494 180.254 46.4658 204.798 59.1817C211.997 88.5113 209.744 103.431 201.847 129.101C222.617 150.063 230.191 163.513 236 190.713C220.916 208.899 210.048 218.729 178.797 234.465C173.476 262.503 167.932 277.051 151.39 299.954C120.429 299.29 105.426 295.412 82.2407 283.201C58.3577 294.24 43.0892 298.509 12.8101 303C-6.83761 277.572 -12.505 263.543 -16.9861 238.757C-27.1651 234.381 -35.4259 230.478 -43.128 225.879M-58.1154 154.3C-67.5051 168.13 -72.2539 180.393 -77 198.19C-64.1593 211.189 -54.2233 219.255 -43.128 225.879M-58.1154 154.3C-52.8266 176.448 -41.0198 184.206 -31.4625 181.299C-21.9053 178.391 -15.2995 161.5 -31.4625 159.561M-43.128 225.879C-44.5335 179.637 0.441853 190.99 -14.1751 213.42" stroke="white" stroke-opacity="0.6" stroke-width="3"/>
<path d="M172.613 47.2746C195.746 81.6914 152.548 93.8398 153.965 69.4738" stroke="white" stroke-opacity="0.6" stroke-width="3"/>
<path d="M208.312 96.9816C183.796 63.5063 157.002 99.0283 180.643 106.328" stroke="white" stroke-opacity="0.6" stroke-width="3"/>
<path d="M204.377 220.204C212.528 181.852 171.992 182.784 179.844 205.932" stroke="white" stroke-opacity="0.6" stroke-width="3"/>
<path d="M225.599 159.146C211.123 199.851 175.785 174.654 195.797 160.744" stroke="white" stroke-opacity="0.6" stroke-width="3"/>
<path d="M-4.50777 48.2619C-32.4037 85.4787 11.1258 101.387 12.083 74.7498" stroke="white" stroke-opacity="0.6" stroke-width="3"/>
<path d="M-12.6146 258.523C28.7189 280.485 38.5724 235.79 11.6674 238.61" stroke="white" stroke-opacity="0.6" stroke-width="3"/>
<path d="M55.2555 294C12.1101 275.724 45.652 237.526 59.6914 260.884" stroke="white" stroke-opacity="0.6" stroke-width="3"/>
<path d="M44.7404 21.692C91.3575 27.2927 73.1858 69.3809 52.8801 51.7657" stroke="white" stroke-opacity="0.6" stroke-width="3"/>
<path d="M100.935 291.342C144.074 273.509 114.985 237.876 100.401 260.241" stroke="white" stroke-opacity="0.6" stroke-width="3"/>
<path d="M170.74 267.324C125.133 277.601 127.501 230.819 152.649 241.006" stroke="white" stroke-opacity="0.6" stroke-width="3"/>
<path d="M111.339 23.3519C66.7601 28.7126 84.1133 68.8052 103.539 52.0106" stroke="white" stroke-opacity="0.6" stroke-width="3"/>
</svg>
