<svg width="157" height="155" viewBox="0 0 157 155" fill="none" xmlns="http://www.w3.org/2000/svg">
<path d="M51.6572 23.9522C51.6572 23.9522 48.0301 29.8918 45.1502 35.9993C42.2702 42.1067 41.6541 49.6727 41.6541 49.6727C38.1199 50.9985 35.2212 52.2463 32.696 53.5581C27.1392 56.4447 23.3909 59.6413 18.6584 64.6619C20.5765 71.2321 22.4153 75.6595 24.893 79.8179C26.6129 82.7046 28.6407 85.4617 31.2165 88.7161C28.281 97.6829 27.6515 103.316 29.6003 115.194C40.3795 119.104 46.1717 120.415 56.0085 121.029C61.4764 129.181 65.7306 133.13 75.8169 138.86C85.346 134.257 89.7633 130.449 96.5083 122.155C109.609 122.532 114.941 121.227 123.15 117.918C126.078 107.919 125.976 102.138 122.862 91.5318C130.035 84.477 133.433 79.9607 136.282 69.0126C130.456 60.4522 125.731 56.7009 114.456 52.0362C112.836 40.4855 110.487 35.164 104.215 27.3475C93.3189 26.6904 87.7798 28.6019 78.2541 33.4255C69.6307 27.2041 63.7537 25.2046 51.6572 23.9522Z" fill="#763539"/>
<path d="M56.4841 34.2361C56.4841 34.2361 53.5714 39.0061 51.2586 43.9107C48.9458 48.8154 48.451 54.8914 48.451 54.8914C45.6128 55.9561 43.285 56.9581 41.257 58.0116C36.7946 60.3297 33.7845 62.8968 29.984 66.9286C31.5243 72.2049 33.001 75.7604 34.9907 79.0999C36.3719 81.4181 38.0004 83.6323 40.0689 86.2457C37.7115 93.4467 37.206 97.97 38.771 107.509C47.4274 110.649 52.0789 111.702 59.9785 112.195C64.3696 118.742 67.786 121.913 75.886 126.515C83.5384 122.818 87.0858 119.76 92.5025 113.099C103.024 113.402 107.306 112.354 113.898 109.697C116.249 101.667 116.167 97.0244 113.666 88.5069C119.427 82.8415 122.156 79.2146 124.444 70.4225C119.765 63.548 115.97 60.5355 106.916 56.7894C105.615 47.5134 103.728 43.24 98.6918 36.9628C89.9411 36.4351 85.493 37.9702 77.8432 41.8438C70.918 36.8476 66.1984 35.2419 56.4841 34.2361Z" fill="#DF0615"/>
</svg>
