<svg width="404" height="397" viewBox="0 0 404 397" fill="none" xmlns="http://www.w3.org/2000/svg">
<path d="M70.6613 151.102C76.9369 146.657 84.2359 142.245 93.2075 137.39C93.2075 137.39 92.0607 116.907 97.5136 99.4919C102.967 82.0772 110.482 64.8354 110.482 64.8354C143.328 63.718 159.801 66.8988 185.186 80.3674C208.905 63.9335 223.027 56.7691 252.442 54.501C272.12 73.1092 280.375 86.4873 288.982 116.812C320.891 125.132 334.927 133.429 353.687 154.193C350.107 184.556 342.678 197.902 326.083 219.44C338.339 246.683 340.748 262.123 336.606 289.974C315.852 301.865 302.06 307.33 266.847 311.162C251.855 335.858 241.436 347.685 217.627 363.531C188.507 351.917 175.659 342.918 158.007 323.114C131.446 325.108 115.455 323.738 85.1528 317.254C75.5455 286.174 75.1491 270.862 79.694 245.771C71.5954 238.011 65.1478 231.379 59.4765 224.287M70.6613 151.102C56.852 160.883 47.9985 170.826 37.1846 186.016C44.7477 202.897 51.3067 214.07 59.4765 224.287M70.6613 151.102C67.8182 173.978 76.2603 185.522 86.3535 186.156C96.4467 186.79 108.703 173.118 94.0655 165.546M59.4765 224.287C74.5498 179.944 113.165 206.665 91.3483 222.745" stroke="white" stroke-opacity="0.4" stroke-width="3"/>
<path d="M93.8689 117.437C125.979 83.2022 150.375 123.062 123.735 128.885" stroke="white" stroke-opacity="0.4" stroke-width="3"/>
<path d="M327.395 131.485C337.119 172.324 291.851 168.517 301.838 145.917" stroke="white" stroke-opacity="0.4" stroke-width="3"/>
<path d="M343.608 191.28C332.24 150.843 294.233 175.017 314.058 190.325" stroke="white" stroke-opacity="0.4" stroke-width="3"/>
<path d="M296.16 306.716C317.495 273.245 278.73 259.747 277.963 284.48" stroke="white" stroke-opacity="0.4" stroke-width="3"/>
<path d="M337.944 256.353C309.777 289.812 285.211 253.384 309.12 247.295" stroke="white" stroke-opacity="0.4" stroke-width="3"/>
<path d="M159.109 69.5819C119.456 94.9717 155.084 125.498 165.442 100.582" stroke="white" stroke-opacity="0.4" stroke-width="3"/>
<path d="M76.826 266.064C108.225 301.551 133.424 262.67 106.914 255.798" stroke="white" stroke-opacity="0.4" stroke-width="3"/>
<path d="M128.59 323.78C94.1661 291.144 139.521 266.827 144.545 293.954" stroke="white" stroke-opacity="0.4" stroke-width="3"/>
<path d="M215.23 61.8622C257.443 83.7112 225.281 117.17 212.278 93.2641" stroke="white" stroke-opacity="0.4" stroke-width="3"/>
<path d="M172.844 337.465C220.073 335.862 205.134 291.757 183.372 307.788" stroke="white" stroke-opacity="0.4" stroke-width="3"/>
<path d="M247.55 339.459C200.662 333.022 219.505 289.507 239.735 308.087" stroke="white" stroke-opacity="0.4" stroke-width="3"/>
<path d="M277.786 87.0637C233.617 76.3308 235.846 120.501 260.223 111.469" stroke="white" stroke-opacity="0.4" stroke-width="3"/>
</svg>
