<svg width="263" height="257" viewBox="0 0 263 257" fill="none" xmlns="http://www.w3.org/2000/svg">
<path d="M23.3992 51.3432C23.3992 51.3432 22.5851 66.9375 23.3992 82.0663C24.2133 97.1951 30.9587 112.789 30.9587 112.789C25.4815 119.176 21.1575 124.73 17.6266 130.013C9.85681 141.637 5.92729 151.945 2 166.904C12.6254 177.83 20.8471 184.61 30.0283 190.178C36.4016 194.043 43.2372 197.324 51.6601 201.002C55.368 221.835 60.0577 233.627 76.3157 255C101.371 251.225 114.005 247.637 133.768 238.358C152.954 248.622 165.367 251.882 190.987 252.44C204.675 233.189 209.263 220.961 213.666 197.394C239.525 184.168 248.518 175.905 261 160.62C256.193 137.757 249.926 126.452 232.739 108.833C239.274 87.2557 241.138 74.7155 235.181 50.063C214.871 39.3749 201.75 37.0076 174.938 39.822C159.663 18.7453 149.511 10.7442 129.116 2C107.248 12.3225 98.4886 22.003 85.0382 41.6841C61.7465 38.597 48.2249 40.9166 23.3992 51.3432Z" fill="#C40303"/>
<path d="M17.6266 130.013C21.1575 124.73 25.4815 119.176 30.9587 112.789C30.9587 112.789 24.2133 97.1951 23.3992 82.0663C22.5851 66.9375 23.3992 51.3432 23.3992 51.3432C48.2249 40.9166 61.7465 38.597 85.0382 41.6841C98.4886 22.003 107.248 12.3225 129.116 2C149.511 10.7442 159.663 18.7453 174.938 39.822C201.75 37.0076 214.871 39.3749 235.181 50.063C241.138 74.7155 239.274 87.2557 232.739 108.833C249.926 126.452 256.193 137.757 261 160.62C248.518 175.905 239.525 184.168 213.666 197.394C209.263 220.961 204.675 233.189 190.987 252.44C165.367 251.882 152.954 248.622 133.768 238.358C114.005 247.637 101.371 251.225 76.3157 255C60.0577 233.627 55.368 221.835 51.6601 201.002C43.2372 197.324 36.4016 194.043 30.0283 190.178M17.6266 130.013C9.85681 141.637 5.92729 151.945 2 166.904C12.6254 177.83 20.8471 184.61 30.0283 190.178M17.6266 130.013C22.0029 148.629 31.7728 155.15 39.6812 152.706C47.5896 150.262 53.0557 136.064 39.6812 134.435M30.0283 190.178C28.8653 151.31 66.0813 160.852 53.9861 179.705" stroke="white" stroke-width="2"/>
<path d="M25.7496 97.02C40.5249 61.0782 70.6187 84.9599 51.8927 97.2319" stroke="white" stroke-width="2"/>
<path d="M208.549 40.0301C227.691 68.9397 191.946 79.1442 193.118 58.6771" stroke="white" stroke-width="2"/>
<path d="M238.089 81.7832C217.803 53.6644 195.631 83.5024 215.193 89.6341" stroke="white" stroke-width="2"/>
<path d="M234.832 185.289C241.578 153.074 208.035 153.856 214.532 173.3" stroke="white" stroke-width="2"/>
<path d="M252.394 134C240.415 168.193 211.174 147.027 227.733 135.343" stroke="white" stroke-width="2"/>
<path d="M61.9855 40.8593C38.9023 72.1209 74.9219 85.4836 75.7139 63.1087" stroke="white" stroke-width="2"/>
<path d="M55.2774 217.477C89.4799 235.924 97.6334 198.381 75.3702 200.75" stroke="white" stroke-width="2"/>
<path d="M111.438 247.277C75.7366 231.925 103.492 199.839 115.109 219.459" stroke="white" stroke-width="2"/>
<path d="M102.737 18.5409C141.312 23.2454 126.275 58.5989 109.473 43.8024" stroke="white" stroke-width="2"/>
<path d="M149.237 245.043C184.934 230.064 160.863 200.133 148.795 218.919" stroke="white" stroke-width="2"/>
<path d="M206.999 224.869C169.26 233.501 171.22 194.205 192.029 202.762" stroke="white" stroke-width="2"/>
<path d="M157.846 19.9354C120.958 24.4383 135.317 58.1155 151.392 44.0083" stroke="white" stroke-width="2"/>
</svg>
