<svg width="158" height="305" viewBox="0 0 158 305" fill="none" xmlns="http://www.w3.org/2000/svg">
<path d="M20.8846 154.3C25.1517 148.015 30.3772 141.407 36.9964 133.809C36.9964 133.809 28.8447 115.256 27.8608 97.2567C26.877 79.2577 27.8608 60.7048 27.8608 60.7048C57.8625 48.3 74.2032 45.5403 102.351 49.2131C118.606 25.798 129.191 14.281 155.619 2C180.266 12.4032 192.535 21.9223 210.995 46.9977C243.396 43.6494 259.254 46.4658 283.798 59.1817C290.997 88.5113 288.744 103.431 280.847 129.101C301.617 150.063 309.191 163.513 315 190.713C299.916 208.899 289.048 218.729 257.797 234.465C252.476 262.503 246.932 277.051 230.39 299.954C199.429 299.29 184.426 295.412 161.241 283.201C137.358 294.24 122.089 298.509 91.8101 303C72.1624 277.572 66.495 263.543 62.0139 238.757C51.8349 234.381 43.5741 230.478 35.872 225.879M20.8846 154.3C11.4949 168.13 6.7461 180.393 2 198.19C14.8407 211.189 24.7767 219.255 35.872 225.879M20.8846 154.3C26.1734 176.448 37.9802 184.206 47.5375 181.299C57.0947 178.391 63.7005 161.5 47.5375 159.561M35.872 225.879C34.4665 179.637 79.4419 190.99 64.8249 213.42" stroke="white" stroke-opacity="0.6" stroke-width="3"/>
<path d="M30.7012 115.121C48.557 72.3319 84.9252 100.763 62.295 115.373" stroke="white" stroke-opacity="0.6" stroke-width="3"/>
<path d="M74.4922 48.2619C46.5963 85.4787 90.1258 101.387 91.0829 74.7498" stroke="white" stroke-opacity="0.6" stroke-width="3"/>
<path d="M66.3854 258.523C107.719 280.485 117.572 235.79 90.6674 238.61" stroke="white" stroke-opacity="0.6" stroke-width="3"/>
<path d="M134.256 294C91.1101 275.724 124.652 237.526 138.691 260.884" stroke="white" stroke-opacity="0.6" stroke-width="3"/>
<path d="M123.74 21.692C170.357 27.2927 152.186 69.3809 131.88 51.7656" stroke="white" stroke-opacity="0.6" stroke-width="3"/>
<path d="M190.339 23.3519C145.76 28.7126 163.113 68.8052 182.539 52.0106" stroke="white" stroke-opacity="0.6" stroke-width="3"/>
</svg>
