<svg width="282" height="511" viewBox="0 0 282 511" fill="none" xmlns="http://www.w3.org/2000/svg">
<path d="M-156.242 202.48C-148.263 196.147 -138.927 189.783 -127.411 182.712C-127.411 182.712 -130.409 155.702 -124.455 132.272C-118.501 108.843 -109.808 85.4933 -109.808 85.4933C-66.4406 81.6404 -44.422 84.6569 -9.87028 100.637C20.3156 77.1845 38.4777 66.6868 77.2211 61.5602C104.596 84.7513 116.482 101.85 130.059 141.339C172.868 150.038 192.034 159.997 218.35 186.107C215.809 226.527 206.948 244.718 186.554 274.407C204.735 309.557 209.038 329.805 205.572 366.944C178.98 384.173 161.132 392.399 114.832 400.014C96.7865 433.764 83.8605 450.161 53.5129 472.843C14.1547 459.586 -3.49094 448.611 -28.2707 423.692C-63.2598 428.25 -84.5108 427.594 -125.062 421.208C-140.017 380.791 -141.648 360.566 -137.45 327.05C-148.724 317.37 -157.732 309.064 -165.746 300.093M-156.242 202.48C-173.801 216.417 -184.793 230.209 -197.999 251.083C-186.775 272.864 -177.291 287.169 -165.746 300.093M-156.242 202.48C-158.349 232.944 -146.348 247.605 -132.952 247.713C-119.555 247.822 -104.332 228.852 -124.241 219.894M-165.746 300.093C-149.014 240.349 -96.0044 272.902 -123.699 295.75" stroke="white" stroke-opacity="0.4" stroke-width="3"/>
<path d="M181.931 157.97C197.745 211.287 137.592 209.524 149.169 178.908" stroke="white" stroke-opacity="0.4" stroke-width="3"/>
<path d="M207.699 235.891C189.738 183.225 141.213 217.949 168.543 236.765" stroke="white" stroke-opacity="0.4" stroke-width="3"/>
<path d="M153.283 392.013C179.085 346.198 126.833 331.146 127.606 363.917" stroke="white" stroke-opacity="0.4" stroke-width="3"/>
<path d="M204.912 322.376C170.073 368.67 134.946 322.26 166.131 312.478" stroke="white" stroke-opacity="0.4" stroke-width="3"/>
<path d="M28.5322 73.9871C85.948 99.8358 45.8259 146.418 26.8978 115.737" stroke="white" stroke-opacity="0.4" stroke-width="3"/>
<path d="M-7.6085 441.602C54.7477 436.067 31.7985 378.807 4.17171 401.586" stroke="white" stroke-opacity="0.4" stroke-width="3"/>
<path d="M91.3525 438.838C28.8665 433.713 50.6449 374.792 78.7469 397.907" stroke="white" stroke-opacity="0.4" stroke-width="3"/>
<path d="M113.099 102.8C53.8995 91.7962 60.0416 150.06 91.633 136.351" stroke="white" stroke-opacity="0.4" stroke-width="3"/>
</svg>
