<svg width="203" height="198" viewBox="0 0 203 198" fill="none" xmlns="http://www.w3.org/2000/svg">
<path d="M26.8785 84.4252C29.8892 81.507 33.4542 78.5216 37.8834 75.1576C37.8834 75.1576 35.5581 64.217 37.0445 54.3794C38.5309 44.5418 41.1428 34.6255 41.1428 34.6255C58.7475 31.2855 67.888 31.6262 82.6882 36.7671C94.0982 25.9354 101.11 20.898 116.769 17.2241C128.923 25.6099 134.486 32.1299 141.651 47.7512C159.537 49.5747 167.792 52.8748 179.63 62.4988C180.232 79.1566 177.342 86.967 170.196 99.9546C179.07 113.612 181.655 121.73 181.745 137.081C171.554 145.218 164.578 149.312 145.925 154.312C139.906 168.868 135.278 176.109 123.771 186.632C107.113 182.801 99.4399 179.023 88.2787 169.825C74.1338 173.113 65.4036 173.708 48.5362 172.74C40.7691 156.795 39.2792 148.578 39.6365 134.68C34.6261 131.174 30.5994 128.138 26.9525 124.789M26.8785 84.4252C20.2533 90.8465 16.3119 96.9417 11.7515 106.027C17.2336 114.492 21.6989 119.965 26.9525 124.789M26.8785 84.4252C27.2534 96.9876 32.7644 102.504 38.2554 102.004C43.7464 101.505 49.2103 93.1167 40.6927 90.2569M26.9525 124.789C31.3777 99.641 54.4109 110.819 43.9965 121.302" stroke="white" stroke-opacity="0.2" stroke-width="3"/>
<path d="M36.5765 64.3519C51.024 43.2296 67.4907 62.6724 53.6226 68.0306" stroke="white" stroke-opacity="0.2" stroke-width="3"/>
<path d="M163.571 52.4549C172.215 73.6486 147.507 75.3706 151.004 62.3612" stroke="white" stroke-opacity="0.2" stroke-width="3"/>
<path d="M177.291 83.321C167.795 62.4811 149.332 78.6741 161.29 85.2698" stroke="white" stroke-opacity="0.2" stroke-width="3"/>
<path d="M161.348 149.473C170.054 129.661 148.042 125.619 149.69 139.009" stroke="white" stroke-opacity="0.2" stroke-width="3"/>
<path d="M179.664 118.855C167.276 139.23 151.004 121.65 163.378 116.377" stroke="white" stroke-opacity="0.2" stroke-width="3"/>
<path d="M67.739 33.1293C48.4902 50.1147 70.2313 63.5926 73.7353 49.3043" stroke="white" stroke-opacity="0.2" stroke-width="3"/>
<path d="M39.7827 145.853C59.6583 162.356 69.9947 139.306 55.1382 137.813" stroke="white" stroke-opacity="0.2" stroke-width="3"/>
<path d="M72.4842 172.635C51.2162 157.92 73.6262 141.038 78.5946 155.235" stroke="white" stroke-opacity="0.2" stroke-width="3"/>
<path d="M97.3333 24.2919C121.899 32.5455 107.359 53.2539 98.3604 41.4574" stroke="white" stroke-opacity="0.2" stroke-width="3"/>
<path d="M97.4687 176.32C122.782 171.519 111.057 149.001 100.667 159.452" stroke="white" stroke-opacity="0.2" stroke-width="3"/>
<path d="M137.887 171.167C112.087 171.607 118.612 146.59 131.061 154.915" stroke="white" stroke-opacity="0.2" stroke-width="3"/>
<path d="M133.139 32.6561C108.446 30.555 113.329 54.1679 125.711 47.2697" stroke="white" stroke-opacity="0.2" stroke-width="3"/>
</svg>
