<svg width="31" height="30" viewBox="0 0 31 30" fill="none" xmlns="http://www.w3.org/2000/svg">
<path d="M4.20786 10.2282C4.12386 8.67342 4.20786 7.07084 4.20786 7.07084C6.76923 5.99933 8.16432 5.76096 10.5674 6.0782C11.9552 4.05564 12.8589 3.06081 15.1151 2C17.2194 2.89862 18.2668 3.72086 19.8428 5.88684C22.6091 5.59762 23.9629 5.8409 26.0584 6.93928C26.673 9.47273 26.4807 10.7615 25.8064 12.9788C27.5796 14.7895 28.2263 15.9513 28.7222 18.3008C27.4344 19.8717 26.5066 20.7208 23.8385 22.08C23.3843 24.5019 22.9109 25.7586 21.4987 27.7369C18.8554 27.6795 17.5746 27.3445 15.5951 26.2898C13.5561 27.2433 12.2526 27.612 9.66749 28C7.99008 25.8035 7.50623 24.5917 7.12366 22.4508C6.25463 22.0728 5.54937 21.7356 4.89181 21.3384C3.94455 20.7662 3.09627 20.0695 2 18.9466C2.4052 17.4094 2.81062 16.3501 3.61226 15.1555C3.97656 14.6126 4.42269 14.0418 4.9878 13.3855C4.9878 13.3855 4.29185 11.7829 4.20786 10.2282Z" stroke="white" stroke-width="3"/>
</svg>
