<svg width="17" height="17" viewBox="0 0 17 17" fill="none" xmlns="http://www.w3.org/2000/svg">
<path d="M8.3426 2.73884V1.14522C8.3426 1.00434 8.39857 0.869221 8.49819 0.769601C8.59781 0.66998 8.73292 0.614014 8.87381 0.614014C9.01469 0.614014 9.14981 0.66998 9.24943 0.769601C9.34905 0.869221 9.40501 1.00434 9.40501 1.14522V2.73884C9.40501 2.87973 9.34905 3.01484 9.24943 3.11446C9.14981 3.21408 9.01469 3.27005 8.87381 3.27005C8.73292 3.27005 8.59781 3.21408 8.49819 3.11446C8.39857 3.01484 8.3426 2.87973 8.3426 2.73884ZM8.87381 4.33246C8.0333 4.33246 7.21167 4.5817 6.51282 5.04866C5.81397 5.51562 5.26928 6.17933 4.94763 6.95585C4.62599 7.73237 4.54183 8.58684 4.7058 9.41119C4.86978 10.2355 5.27452 10.9928 5.86884 11.5871C6.46317 12.1814 7.22039 12.5862 8.04474 12.7501C8.86909 12.9141 9.72356 12.8299 10.5001 12.5083C11.2766 12.1867 11.9403 11.642 12.4073 10.9431C12.8742 10.2443 13.1235 9.42263 13.1235 8.58212C13.1222 7.45542 12.6741 6.37522 11.8774 5.57852C11.0807 4.78182 10.0005 4.3337 8.87381 4.33246ZM4.24832 4.70829C4.34799 4.80797 4.48318 4.86397 4.62415 4.86397C4.76511 4.86397 4.9003 4.80797 4.99998 4.70829C5.09965 4.60862 5.15565 4.47343 5.15565 4.33246C5.15565 4.1915 5.09965 4.05631 4.99998 3.95664L3.93756 2.89422C3.83789 2.79454 3.7027 2.73855 3.56173 2.73855C3.42077 2.73855 3.28558 2.79454 3.1859 2.89422C3.08623 2.9939 3.03023 3.12909 3.03023 3.27005C3.03023 3.41101 3.08623 3.5462 3.1859 3.64588L4.24832 4.70829ZM4.24832 12.456L3.1859 13.5184C3.08623 13.618 3.03023 13.7532 3.03023 13.8942C3.03023 14.0352 3.08623 14.1704 3.1859 14.27C3.28558 14.3697 3.42077 14.4257 3.56173 14.4257C3.7027 14.4257 3.83789 14.3697 3.93756 14.27L4.99998 13.2076C5.04933 13.1583 5.08848 13.0997 5.11519 13.0352C5.1419 12.9707 5.15565 12.9016 5.15565 12.8318C5.15565 12.762 5.1419 12.6929 5.11519 12.6284C5.08848 12.5639 5.04933 12.5053 4.99998 12.456C4.95062 12.4066 4.89203 12.3674 4.82754 12.3407C4.76306 12.314 4.69395 12.3003 4.62415 12.3003C4.55435 12.3003 4.48523 12.314 4.42075 12.3407C4.35627 12.3674 4.29767 12.4066 4.24832 12.456ZM13.1235 4.86367C13.1932 4.86373 13.2624 4.85003 13.3268 4.82337C13.3913 4.79671 13.4499 4.75761 13.4993 4.70829L14.5617 3.64588C14.6614 3.5462 14.7174 3.41101 14.7174 3.27005C14.7174 3.12909 14.6614 2.9939 14.5617 2.89422C14.462 2.79454 14.3268 2.73855 14.1859 2.73855C14.0449 2.73855 13.9097 2.79454 13.8101 2.89422L12.7476 3.95664C12.6733 4.03093 12.6226 4.12562 12.6021 4.22872C12.5815 4.33182 12.5921 4.43869 12.6323 4.53581C12.6725 4.63292 12.7407 4.71592 12.8281 4.77428C12.9156 4.83264 13.0183 4.86375 13.1235 4.86367ZM13.4993 12.456C13.3996 12.3563 13.2644 12.3003 13.1235 12.3003C12.9825 12.3003 12.8473 12.3563 12.7476 12.456C12.648 12.5556 12.592 12.6908 12.592 12.8318C12.592 12.9727 12.648 13.1079 12.7476 13.2076L13.8101 14.27C13.8594 14.3194 13.918 14.3585 13.9825 14.3852C14.047 14.412 14.1161 14.4257 14.1859 14.4257C14.2557 14.4257 14.3248 14.412 14.3893 14.3852C14.4538 14.3585 14.5124 14.3194 14.5617 14.27C14.6111 14.2207 14.6502 14.1621 14.6769 14.0976C14.7036 14.0331 14.7174 13.964 14.7174 13.8942C14.7174 13.8244 14.7036 13.7553 14.6769 13.6908C14.6502 13.6263 14.6111 13.5677 14.5617 13.5184L13.4993 12.456ZM3.56173 8.58212C3.56173 8.44124 3.50577 8.30612 3.40615 8.2065C3.30652 8.10688 3.17141 8.05092 3.03053 8.05092H1.4369C1.29602 8.05092 1.1609 8.10688 1.06128 8.2065C0.961662 8.30612 0.905696 8.44124 0.905696 8.58212C0.905696 8.72301 0.961662 8.85812 1.06128 8.95774C1.1609 9.05736 1.29602 9.11333 1.4369 9.11333H3.03053C3.17141 9.11333 3.30652 9.05736 3.40615 8.95774C3.50577 8.85812 3.56173 8.72301 3.56173 8.58212ZM8.87381 13.8942C8.73292 13.8942 8.59781 13.9502 8.49819 14.0498C8.39857 14.1494 8.3426 14.2845 8.3426 14.4254V16.019C8.3426 16.1599 8.39857 16.295 8.49819 16.3946C8.59781 16.4943 8.73292 16.5502 8.87381 16.5502C9.01469 16.5502 9.14981 16.4943 9.24943 16.3946C9.34905 16.295 9.40501 16.1599 9.40501 16.019V14.4254C9.40501 14.2845 9.34905 14.1494 9.24943 14.0498C9.14981 13.9502 9.01469 13.8942 8.87381 13.8942ZM16.3107 8.05092H14.7171C14.5762 8.05092 14.4411 8.10688 14.3415 8.2065C14.2418 8.30612 14.1859 8.44124 14.1859 8.58212C14.1859 8.72301 14.2418 8.85812 14.3415 8.95774C14.4411 9.05736 14.5762 9.11333 14.7171 9.11333H16.3107C16.4516 9.11333 16.5867 9.05736 16.6863 8.95774C16.7859 8.85812 16.8419 8.72301 16.8419 8.58212C16.8419 8.44124 16.7859 8.30612 16.6863 8.2065C16.5867 8.10688 16.4516 8.05092 16.3107 8.05092Z" fill="white"/>
</svg>
