<svg width="287" height="283" viewBox="0 0 287 283" fill="none" xmlns="http://www.w3.org/2000/svg">
<path d="M59.6766 97.7541C64.2856 95.3598 69.5763 93.0824 76.0269 90.6625C76.0269 90.6625 77.1514 76.853 82.4079 65.7058C87.6644 54.5585 94.2846 43.7174 94.2846 43.7174C116.363 46.0035 127.09 49.6528 142.829 61.0082C160.215 52.2041 170.325 48.7153 190.214 49.9145C201.66 64.1813 205.948 73.8939 208.905 94.9764C229.484 103.49 238.109 110.337 248.742 125.962C243.542 145.944 237.34 154.187 224.248 167.064C229.931 186.422 230.117 196.974 224.774 215.224C209.791 221.263 200.059 223.645 176.147 222.957C163.836 238.095 155.773 245.045 138.381 253.448C119.971 242.988 112.207 235.781 102.226 220.901C84.2724 219.782 73.7005 217.389 54.0264 210.252C50.4693 188.571 51.6183 178.291 56.9762 161.924C52.2748 155.984 48.5737 150.952 45.4345 145.683M59.6766 97.7541C49.5344 103.023 42.6929 108.857 34.0553 118.021C37.5561 130.013 40.9123 138.093 45.4345 145.683M59.6766 97.7541C55.6617 112.796 60.2434 121.299 66.9374 122.656C73.6315 124.012 83.0937 115.997 74.0004 109.579M45.4345 145.683C59.6143 117.409 82.9808 138.852 66.8998 147.596" stroke="white" stroke-opacity="0.6" stroke-width="3"/>
<path d="M78.3122 77.3748C102.957 57.4365 115.596 86.3566 97.2359 87.7921" stroke="white" stroke-opacity="0.6" stroke-width="3"/>
<path d="M233.249 108.341C235.983 136.561 206.049 129.833 214.818 115.636" stroke="white" stroke-opacity="0.6" stroke-width="3"/>
<path d="M238.573 149.842C234.703 121.739 207.043 134.402 218.892 146.474" stroke="white" stroke-opacity="0.6" stroke-width="3"/>
<path d="M196.168 222.69C213.533 202.267 188.845 189.657 186.048 206.133" stroke="white" stroke-opacity="0.6" stroke-width="3"/>
<path d="M228.774 192.855C206.84 212.638 193.769 185.998 210.327 184.133" stroke="white" stroke-opacity="0.6" stroke-width="3"/>
<path d="M126.379 51.384C97.5054 64.7082 118.522 88.4218 127.753 72.7088" stroke="white" stroke-opacity="0.6" stroke-width="3"/>
<path d="M53.1833 175.235C70.9122 201.877 91.3622 178.192 74.2608 171.146" stroke="white" stroke-opacity="0.6" stroke-width="3"/>
<path d="M82.4842 218.63C62.4679 193.616 95.0569 181.537 95.913 200.149" stroke="white" stroke-opacity="0.6" stroke-width="3"/>
<path d="M164.638 51.4024C190.862 69.9186 166.255 89.3329 159.763 72.1384" stroke="white" stroke-opacity="0.6" stroke-width="3"/>
<path d="M110.827 231.873C142.573 235.162 136.652 204.275 120.611 212.99" stroke="white" stroke-opacity="0.6" stroke-width="3"/>
<path d="M160.623 240.106C129.848 231.469 146.474 204.097 158.292 218.396" stroke="white" stroke-opacity="0.6" stroke-width="3"/>
<path d="M204.162 74.0404C175.603 62.7805 173.015 92.5372 190.158 88.7462" stroke="white" stroke-opacity="0.6" stroke-width="3"/>
</svg>
